<mxfile host="app.diagrams.net" modified="2024-03-12T22:40:12.851Z" agent="Mozilla/5.0 (Windows NT 10.0; Win64; x64) AppleWebKit/537.36 (KHTML, like Gecko) Chrome/122.0.0.0 Safari/537.36 Edg/122.0.0.0" etag="AUNf1h4_ezdwZqj5untr" version="24.0.4" type="device">
  <diagram name="Página-1" id="yL65MgFkmGX-TGxBMEku">
    <mxGraphModel dx="2897" dy="948" grid="1" gridSize="10" guides="1" tooltips="1" connect="1" arrows="1" fold="1" page="1" pageScale="1" pageWidth="827" pageHeight="1169" math="0" shadow="0">
      <root>
        <mxCell id="0" />
        <mxCell id="1" parent="0" />
        <mxCell id="__IyJGd8TZ3Qaixirn19-3" value="" style="edgeStyle=orthogonalEdgeStyle;rounded=0;orthogonalLoop=1;jettySize=auto;html=1;" edge="1" parent="1" source="__IyJGd8TZ3Qaixirn19-1" target="__IyJGd8TZ3Qaixirn19-2">
          <mxGeometry relative="1" as="geometry" />
        </mxCell>
        <mxCell id="__IyJGd8TZ3Qaixirn19-1" value="INICIO" style="ellipse;whiteSpace=wrap;html=1;fillColor=#5EA9FF;" vertex="1" parent="1">
          <mxGeometry x="10" y="20" width="120" height="80" as="geometry" />
        </mxCell>
        <mxCell id="__IyJGd8TZ3Qaixirn19-5" value="" style="edgeStyle=orthogonalEdgeStyle;rounded=0;orthogonalLoop=1;jettySize=auto;html=1;" edge="1" parent="1" source="__IyJGd8TZ3Qaixirn19-2" target="__IyJGd8TZ3Qaixirn19-4">
          <mxGeometry relative="1" as="geometry" />
        </mxCell>
        <mxCell id="__IyJGd8TZ3Qaixirn19-2" value="Mostrar menú" style="shape=parallelogram;perimeter=parallelogramPerimeter;whiteSpace=wrap;html=1;fixedSize=1;fillColor=#3CFF2E;" vertex="1" parent="1">
          <mxGeometry x="260" y="30" width="120" height="60" as="geometry" />
        </mxCell>
        <mxCell id="__IyJGd8TZ3Qaixirn19-7" value="" style="edgeStyle=orthogonalEdgeStyle;rounded=0;orthogonalLoop=1;jettySize=auto;html=1;" edge="1" parent="1" source="__IyJGd8TZ3Qaixirn19-4" target="__IyJGd8TZ3Qaixirn19-6">
          <mxGeometry relative="1" as="geometry" />
        </mxCell>
        <mxCell id="__IyJGd8TZ3Qaixirn19-13" value="" style="edgeStyle=orthogonalEdgeStyle;rounded=0;orthogonalLoop=1;jettySize=auto;html=1;" edge="1" parent="1" source="__IyJGd8TZ3Qaixirn19-4" target="__IyJGd8TZ3Qaixirn19-12">
          <mxGeometry relative="1" as="geometry" />
        </mxCell>
        <mxCell id="__IyJGd8TZ3Qaixirn19-4" value="¿Que operación desea realizar?" style="rhombus;whiteSpace=wrap;html=1;fillColor=#474D0A;" vertex="1" parent="1">
          <mxGeometry x="440" y="170" width="120" height="120" as="geometry" />
        </mxCell>
        <mxCell id="__IyJGd8TZ3Qaixirn19-9" value="" style="edgeStyle=orthogonalEdgeStyle;rounded=0;orthogonalLoop=1;jettySize=auto;html=1;" edge="1" parent="1" source="__IyJGd8TZ3Qaixirn19-6" target="__IyJGd8TZ3Qaixirn19-8">
          <mxGeometry relative="1" as="geometry" />
        </mxCell>
        <mxCell id="__IyJGd8TZ3Qaixirn19-25" value="" style="edgeStyle=orthogonalEdgeStyle;rounded=0;orthogonalLoop=1;jettySize=auto;html=1;" edge="1" parent="1" source="__IyJGd8TZ3Qaixirn19-6">
          <mxGeometry relative="1" as="geometry">
            <mxPoint x="300" y="340" as="targetPoint" />
          </mxGeometry>
        </mxCell>
        <mxCell id="__IyJGd8TZ3Qaixirn19-6" value="Tangente" style="shape=parallelogram;perimeter=parallelogramPerimeter;whiteSpace=wrap;html=1;fixedSize=1;fillColor=#3CFF2E;" vertex="1" parent="1">
          <mxGeometry x="240" y="200" width="120" height="60" as="geometry" />
        </mxCell>
        <mxCell id="__IyJGd8TZ3Qaixirn19-11" value="" style="edgeStyle=orthogonalEdgeStyle;rounded=0;orthogonalLoop=1;jettySize=auto;html=1;" edge="1" parent="1" source="__IyJGd8TZ3Qaixirn19-8" target="__IyJGd8TZ3Qaixirn19-10">
          <mxGeometry relative="1" as="geometry" />
        </mxCell>
        <mxCell id="__IyJGd8TZ3Qaixirn19-23" value="" style="edgeStyle=orthogonalEdgeStyle;rounded=0;orthogonalLoop=1;jettySize=auto;html=1;" edge="1" parent="1" source="__IyJGd8TZ3Qaixirn19-8">
          <mxGeometry relative="1" as="geometry">
            <mxPoint x="100" y="340" as="targetPoint" />
          </mxGeometry>
        </mxCell>
        <mxCell id="__IyJGd8TZ3Qaixirn19-8" value="Coseno" style="shape=parallelogram;perimeter=parallelogramPerimeter;whiteSpace=wrap;html=1;fixedSize=1;fillColor=#3CFF2E;" vertex="1" parent="1">
          <mxGeometry x="40" y="200" width="120" height="60" as="geometry" />
        </mxCell>
        <mxCell id="__IyJGd8TZ3Qaixirn19-21" value="" style="edgeStyle=orthogonalEdgeStyle;rounded=0;orthogonalLoop=1;jettySize=auto;html=1;" edge="1" parent="1" source="__IyJGd8TZ3Qaixirn19-10" target="__IyJGd8TZ3Qaixirn19-20">
          <mxGeometry relative="1" as="geometry" />
        </mxCell>
        <mxCell id="__IyJGd8TZ3Qaixirn19-10" value="Seno" style="shape=parallelogram;perimeter=parallelogramPerimeter;whiteSpace=wrap;html=1;fixedSize=1;fillColor=#3CFF2E;" vertex="1" parent="1">
          <mxGeometry x="-160" y="200" width="120" height="60" as="geometry" />
        </mxCell>
        <mxCell id="__IyJGd8TZ3Qaixirn19-15" value="" style="edgeStyle=orthogonalEdgeStyle;rounded=0;orthogonalLoop=1;jettySize=auto;html=1;" edge="1" parent="1" source="__IyJGd8TZ3Qaixirn19-12" target="__IyJGd8TZ3Qaixirn19-14">
          <mxGeometry relative="1" as="geometry" />
        </mxCell>
        <mxCell id="__IyJGd8TZ3Qaixirn19-27" value="" style="edgeStyle=orthogonalEdgeStyle;rounded=0;orthogonalLoop=1;jettySize=auto;html=1;" edge="1" parent="1" source="__IyJGd8TZ3Qaixirn19-12">
          <mxGeometry relative="1" as="geometry">
            <mxPoint x="700" y="340" as="targetPoint" />
          </mxGeometry>
        </mxCell>
        <mxCell id="__IyJGd8TZ3Qaixirn19-12" value="Cotangente" style="shape=parallelogram;perimeter=parallelogramPerimeter;whiteSpace=wrap;html=1;fixedSize=1;fillColor=#3CFF2E;" vertex="1" parent="1">
          <mxGeometry x="640" y="200" width="120" height="60" as="geometry" />
        </mxCell>
        <mxCell id="__IyJGd8TZ3Qaixirn19-17" value="" style="edgeStyle=orthogonalEdgeStyle;rounded=0;orthogonalLoop=1;jettySize=auto;html=1;" edge="1" parent="1" source="__IyJGd8TZ3Qaixirn19-14" target="__IyJGd8TZ3Qaixirn19-16">
          <mxGeometry relative="1" as="geometry" />
        </mxCell>
        <mxCell id="__IyJGd8TZ3Qaixirn19-48" value="" style="edgeStyle=orthogonalEdgeStyle;rounded=0;orthogonalLoop=1;jettySize=auto;html=1;" edge="1" parent="1" source="__IyJGd8TZ3Qaixirn19-14" target="__IyJGd8TZ3Qaixirn19-40">
          <mxGeometry relative="1" as="geometry" />
        </mxCell>
        <mxCell id="__IyJGd8TZ3Qaixirn19-14" value="Secante" style="shape=parallelogram;perimeter=parallelogramPerimeter;whiteSpace=wrap;html=1;fixedSize=1;fillColor=#3CFF2E;" vertex="1" parent="1">
          <mxGeometry x="930" y="200" width="120" height="60" as="geometry" />
        </mxCell>
        <mxCell id="__IyJGd8TZ3Qaixirn19-19" value="" style="edgeStyle=orthogonalEdgeStyle;rounded=0;orthogonalLoop=1;jettySize=auto;html=1;" edge="1" parent="1" source="__IyJGd8TZ3Qaixirn19-16" target="__IyJGd8TZ3Qaixirn19-18">
          <mxGeometry relative="1" as="geometry" />
        </mxCell>
        <mxCell id="__IyJGd8TZ3Qaixirn19-45" value="" style="edgeStyle=orthogonalEdgeStyle;rounded=0;orthogonalLoop=1;jettySize=auto;html=1;" edge="1" parent="1" source="__IyJGd8TZ3Qaixirn19-16" target="__IyJGd8TZ3Qaixirn19-42">
          <mxGeometry relative="1" as="geometry" />
        </mxCell>
        <mxCell id="__IyJGd8TZ3Qaixirn19-16" value="Cosecante" style="shape=parallelogram;perimeter=parallelogramPerimeter;whiteSpace=wrap;html=1;fixedSize=1;fillColor=#3CFF2E;" vertex="1" parent="1">
          <mxGeometry x="1181" y="200" width="120" height="60" as="geometry" />
        </mxCell>
        <mxCell id="__IyJGd8TZ3Qaixirn19-56" value="" style="edgeStyle=orthogonalEdgeStyle;rounded=0;orthogonalLoop=1;jettySize=auto;html=1;" edge="1" parent="1" source="__IyJGd8TZ3Qaixirn19-18" target="__IyJGd8TZ3Qaixirn19-55">
          <mxGeometry relative="1" as="geometry" />
        </mxCell>
        <mxCell id="__IyJGd8TZ3Qaixirn19-18" value="Salir" style="shape=parallelogram;perimeter=parallelogramPerimeter;whiteSpace=wrap;html=1;fixedSize=1;fillColor=#3CFF2E;" vertex="1" parent="1">
          <mxGeometry x="1400" y="200" width="120" height="60" as="geometry" />
        </mxCell>
        <mxCell id="__IyJGd8TZ3Qaixirn19-35" value="" style="edgeStyle=orthogonalEdgeStyle;rounded=0;orthogonalLoop=1;jettySize=auto;html=1;" edge="1" parent="1" source="__IyJGd8TZ3Qaixirn19-20" target="__IyJGd8TZ3Qaixirn19-34">
          <mxGeometry relative="1" as="geometry" />
        </mxCell>
        <mxCell id="__IyJGd8TZ3Qaixirn19-20" value="Pedir valores para realizar la operacion" style="shape=parallelogram;perimeter=parallelogramPerimeter;whiteSpace=wrap;html=1;fixedSize=1;fillColor=#3CFF2E;" vertex="1" parent="1">
          <mxGeometry x="-360" y="340" width="200" height="60" as="geometry" />
        </mxCell>
        <mxCell id="__IyJGd8TZ3Qaixirn19-37" value="" style="edgeStyle=orthogonalEdgeStyle;rounded=0;orthogonalLoop=1;jettySize=auto;html=1;" edge="1" parent="1" source="__IyJGd8TZ3Qaixirn19-34" target="__IyJGd8TZ3Qaixirn19-36">
          <mxGeometry relative="1" as="geometry" />
        </mxCell>
        <mxCell id="__IyJGd8TZ3Qaixirn19-34" value="Pedir valores para realizar la operacion" style="shape=parallelogram;perimeter=parallelogramPerimeter;whiteSpace=wrap;html=1;fixedSize=1;fillColor=#3CFF2E;" vertex="1" parent="1">
          <mxGeometry x="-60" y="340" width="200" height="60" as="geometry" />
        </mxCell>
        <mxCell id="__IyJGd8TZ3Qaixirn19-49" value="" style="edgeStyle=orthogonalEdgeStyle;rounded=0;orthogonalLoop=1;jettySize=auto;html=1;" edge="1" parent="1" source="__IyJGd8TZ3Qaixirn19-36" target="__IyJGd8TZ3Qaixirn19-47">
          <mxGeometry relative="1" as="geometry" />
        </mxCell>
        <mxCell id="__IyJGd8TZ3Qaixirn19-36" value="Pedir valores para realizar la operacion" style="shape=parallelogram;perimeter=parallelogramPerimeter;whiteSpace=wrap;html=1;fixedSize=1;fillColor=#3CFF2E;" vertex="1" parent="1">
          <mxGeometry x="190" y="340" width="200" height="60" as="geometry" />
        </mxCell>
        <mxCell id="__IyJGd8TZ3Qaixirn19-50" value="" style="edgeStyle=orthogonalEdgeStyle;rounded=0;orthogonalLoop=1;jettySize=auto;html=1;" edge="1" parent="1" source="__IyJGd8TZ3Qaixirn19-38" target="__IyJGd8TZ3Qaixirn19-47">
          <mxGeometry relative="1" as="geometry" />
        </mxCell>
        <mxCell id="__IyJGd8TZ3Qaixirn19-38" value="Pedir valores para realizar la operacion" style="shape=parallelogram;perimeter=parallelogramPerimeter;whiteSpace=wrap;html=1;fixedSize=1;fillColor=#3CFF2E;" vertex="1" parent="1">
          <mxGeometry x="610" y="340" width="200" height="60" as="geometry" />
        </mxCell>
        <mxCell id="__IyJGd8TZ3Qaixirn19-44" value="" style="edgeStyle=orthogonalEdgeStyle;rounded=0;orthogonalLoop=1;jettySize=auto;html=1;" edge="1" parent="1" source="__IyJGd8TZ3Qaixirn19-40" target="__IyJGd8TZ3Qaixirn19-38">
          <mxGeometry relative="1" as="geometry" />
        </mxCell>
        <mxCell id="__IyJGd8TZ3Qaixirn19-40" value="Pedir valores para realizar la operacion" style="shape=parallelogram;perimeter=parallelogramPerimeter;whiteSpace=wrap;html=1;fixedSize=1;fillColor=#3CFF2E;" vertex="1" parent="1">
          <mxGeometry x="890" y="340" width="200" height="60" as="geometry" />
        </mxCell>
        <mxCell id="__IyJGd8TZ3Qaixirn19-46" value="" style="edgeStyle=orthogonalEdgeStyle;rounded=0;orthogonalLoop=1;jettySize=auto;html=1;" edge="1" parent="1" source="__IyJGd8TZ3Qaixirn19-42" target="__IyJGd8TZ3Qaixirn19-40">
          <mxGeometry relative="1" as="geometry" />
        </mxCell>
        <mxCell id="__IyJGd8TZ3Qaixirn19-42" value="Pedir valores para realizar la operacion" style="shape=parallelogram;perimeter=parallelogramPerimeter;whiteSpace=wrap;html=1;fixedSize=1;fillColor=#3CFF2E;" vertex="1" parent="1">
          <mxGeometry x="1141" y="340" width="200" height="60" as="geometry" />
        </mxCell>
        <mxCell id="__IyJGd8TZ3Qaixirn19-52" value="" style="edgeStyle=orthogonalEdgeStyle;rounded=0;orthogonalLoop=1;jettySize=auto;html=1;" edge="1" parent="1" source="__IyJGd8TZ3Qaixirn19-47" target="__IyJGd8TZ3Qaixirn19-51">
          <mxGeometry relative="1" as="geometry" />
        </mxCell>
        <mxCell id="__IyJGd8TZ3Qaixirn19-47" value="Mostrar resultado" style="shape=parallelogram;perimeter=parallelogramPerimeter;whiteSpace=wrap;html=1;fixedSize=1;fillColor=#FFCCE6;" vertex="1" parent="1">
          <mxGeometry x="440" y="340" width="120" height="60" as="geometry" />
        </mxCell>
        <mxCell id="__IyJGd8TZ3Qaixirn19-51" value="FIN" style="ellipse;whiteSpace=wrap;html=1;fillColor=#5EA9FF;" vertex="1" parent="1">
          <mxGeometry x="440" y="510" width="120" height="80" as="geometry" />
        </mxCell>
        <mxCell id="__IyJGd8TZ3Qaixirn19-57" style="edgeStyle=orthogonalEdgeStyle;rounded=0;orthogonalLoop=1;jettySize=auto;html=1;entryX=1;entryY=0.5;entryDx=0;entryDy=0;" edge="1" parent="1" source="__IyJGd8TZ3Qaixirn19-55" target="__IyJGd8TZ3Qaixirn19-51">
          <mxGeometry relative="1" as="geometry" />
        </mxCell>
        <mxCell id="__IyJGd8TZ3Qaixirn19-55" value="&quot;Mostrar en pantalla: saliendo&quot;" style="shape=parallelogram;perimeter=parallelogramPerimeter;whiteSpace=wrap;html=1;fixedSize=1;fillColor=#3CFF2E;" vertex="1" parent="1">
          <mxGeometry x="1325" y="520" width="270" height="60" as="geometry" />
        </mxCell>
      </root>
    </mxGraphModel>
  </diagram>
</mxfile>
